<?xml version="1.0" encoding="utf-8"?>
<!-- Generator: Adobe Illustrator 24.1.1, SVG Export Plug-In . SVG Version: 6.00 Build 0)  -->
<svg version="1.1" id="Layer_1" xmlns="http://www.w3.org/2000/svg" xmlns:xlink="http://www.w3.org/1999/xlink" x="0px" y="0px"
	 viewBox="0 0 68 68" style="enable-background:new 0 0 68 68;" xml:space="preserve">
<style type="text/css">
	.st0{fill:#006796;}
</style>
<g>
	<g>
		<g>
			<rect x="22" y="64" class="st0" width="24" height="2"/>
			<rect x="31" y="53" class="st0" width="2" height="6"/>
			<rect x="35" y="53" class="st0" width="2" height="6"/>
			<path class="st0" d="M62,66H49c-0.6,0-1-0.4-1-1v-5H20v5c0,0.6-0.4,1-1,1H6v-2h12v-5c0-0.6,0.4-1,1-1h30c0.6,0,1,0.4,1,1v5h12V66
				z"/>
			<g>
				<rect x="9" y="25" transform="matrix(0.7071 -0.7071 0.7071 0.7071 -9.0122 30.2426)" class="st0" width="46" height="2"/>
				<rect x="31" y="3" transform="matrix(0.7071 -0.7071 0.7071 0.7071 -9.0122 30.2426)" class="st0" width="2" height="46"/>
				<path class="st0" d="M23.2,46c-3.3,0-6.2-1-8.2-3.1c-5.8-5.8-3-18.2,6.4-27.6C30.8,6,43.1,3.2,49,9c2.9,2.9,3.8,7.4,2.5,12.7
					c-1.2,5.1-4.4,10.4-8.9,14.9l0,0l0,0c-4.5,4.5-9.8,7.6-14.9,8.9C26.2,45.9,24.6,46,23.2,46z M40.7,7.9c-5.4,0-12.2,3.2-17.9,8.9
					c-8.6,8.6-11.4,19.7-6.4,24.7c2.4,2.4,6.2,3.1,10.8,2c4.8-1.2,9.7-4.1,13.9-8.3l0,0c4.2-4.2,7.2-9.2,8.3-13.9
					c1.1-4.6,0.4-8.4-2-10.8C45.9,8.7,43.5,7.9,40.7,7.9z"/>
				<path class="st0" d="M54.3,29.8c-5.3-1.6-11-5.2-16-10.2c-5-5-8.6-10.6-10.2-16l1.9-0.6c1.5,5,4.9,10.4,9.7,15.1
					c4.7,4.7,10.1,8.2,15.1,9.7L54.3,29.8z"/>
				<path class="st0" d="M33.9,48.9c-1.5-5-4.9-10.4-9.7-15.1c-4.7-4.7-10.1-8.2-15.1-9.7l0.6-1.9c5.3,1.6,11,5.2,16,10.2
					c5,5,8.6,10.6,10.2,16L33.9,48.9z"/>
			</g>
			<path class="st0" d="M32,54c-7,0-13.7-2.7-19-7.6l-1.3,1.3l-1.4-1.4l2-2c0.4-0.4,1-0.4,1.4,0c5,5,11.5,7.7,18.3,7.7
				c14.3,0,26-11.7,26-26c0-6.9-2.7-13.4-7.7-18.3C50.1,7.5,50,7.3,50,7s0.1-0.5,0.3-0.7l2-2l1.4,1.4L52.4,7
				c4.9,5.2,7.6,11.9,7.6,19C60,41.4,47.4,54,32,54z"/>
			<path class="st0" d="M32,50C18.8,50,8,39.2,8,26S18.8,2,32,2s24,10.8,24,24S45.2,50,32,50z M32,4c-12.1,0-22,9.9-22,22
				s9.9,22,22,22s22-9.9,22-22S44.1,4,32,4z"/>
		</g>
	</g>
</g>
</svg>
