<?xml version="1.0" encoding="utf-8"?>
<!-- Generator: Adobe Illustrator 24.1.1, SVG Export Plug-In . SVG Version: 6.00 Build 0)  -->
<svg version="1.1" id="Layer_1" xmlns="http://www.w3.org/2000/svg" xmlns:xlink="http://www.w3.org/1999/xlink" x="0px" y="0px"
	 viewBox="0 0 68 68" style="enable-background:new 0 0 68 68;" xml:space="preserve">
<style type="text/css">
	.st0{fill:#006796;}
</style>
<g>
	<g>
		<g>
			<g>
				<g>
					<path class="st0" d="M61.4,64H6.6L2,59.4V56h25.4l2,2h9.2l2-2H66v3.4L61.4,64z M7.4,62h53.2l3.4-3.4V58H41.4l-2,2H28.6l-2-2H4
						v0.6L7.4,62z"/>
					<path class="st0" d="M8,54H6V22c0-2.2,1.8-4,4-4h1v2h-1c-1.1,0-2,0.9-2,2V54z"/>
					<path class="st0" d="M62,54h-2V22c0-1.1-0.9-2-2-2h-1v-2h1c2.2,0,4,1.8,4,4V54z"/>
					<rect x="29" y="50" class="st0" width="2" height="2"/>
					<rect x="25" y="50" class="st0" width="2" height="2"/>
					<rect x="33" y="50" class="st0" width="2" height="2"/>
					<rect x="37" y="50" class="st0" width="2" height="2"/>
					<rect x="41" y="50" class="st0" width="2" height="2"/>
					<rect x="45" y="50" class="st0" width="16" height="2"/>
					<rect x="7" y="50" class="st0" width="16" height="2"/>
				</g>
			</g>
			<path class="st0" d="M34,46c-11.6,0-21-9.4-21-21c0-11.6,9.4-21,21-21s21,9.4,21,21C55,36.6,45.6,46,34,46z M34,6
				c-10.5,0-19,8.5-19,19s8.5,19,19,19s19-8.5,19-19S44.5,6,34,6z"/>
			<path class="st0" d="M34,46c-5,0-9-9.2-9-21c0-11.8,4-21,9-21s9,9.2,9,21C43,36.8,39,46,34,46z M34,6c-3.3,0-7,7.8-7,19
				c0,11.2,3.7,19,7,19s7-7.8,7-19C41,13.8,37.3,6,34,6z"/>
			<path class="st0" d="M34,34c-11.8,0-21-4-21-9s9.2-9,21-9s21,4,21,9S45.8,34,34,34z M34,18c-11.2,0-19,3.7-19,7s7.8,7,19,7
				s19-3.7,19-7S45.2,18,34,18z"/>
		</g>
	</g>
</g>
</svg>
