<?xml version="1.0" encoding="utf-8"?>
<!-- Generator: Adobe Illustrator 22.0.1, SVG Export Plug-In . SVG Version: 6.00 Build 0)  -->
<svg version="1.1" id="Layer_1" xmlns="http://www.w3.org/2000/svg" xmlns:xlink="http://www.w3.org/1999/xlink" x="0px" y="0px"
	 viewBox="0 0 68 68" style="enable-background:new 0 0 68 68;" xml:space="preserve">
<style type="text/css">
	.st0{fill:none;stroke:#006796;stroke-width:2;stroke-linejoin:round;stroke-miterlimit:10;}
</style>
<g>
	<g>
		<g>
			<g>
				<polyline class="st0" points="61,36 65,36 65,62 11,62 11,58 				"/>
				<polyline class="st0" points="57,32 61,32 61,58 7,58 7,54 				"/>
				<g>
					<rect x="3" y="28" class="st0" width="54" height="26"/>
					<path class="st0" d="M13,28"/>
					<path class="st0" d="M3,38"/>
					<path class="st0" d="M47,28"/>
					<path class="st0" d="M57,38"/>
					<path class="st0" d="M47,54"/>
					<path class="st0" d="M57,44"/>
					<path class="st0" d="M3,44"/>
					<path class="st0" d="M13,54"/>
					<polygon class="st0" points="50,50 10,50 7,47 7,35 10,32 50,32 53,35 53,47 					"/>
					<line class="st0" x1="20" y1="41" x2="18" y2="41"/>
					<line class="st0" x1="16" y1="41" x2="14" y2="41"/>
					<line class="st0" x1="46" y1="41" x2="44" y2="41"/>
					<line class="st0" x1="42" y1="41" x2="40" y2="41"/>
					<circle class="st0" cx="30" cy="41" r="5"/>
				</g>
			</g>
			<g>
				<polyline class="st0" points="29,20 25,24 21,20 				"/>
				<polyline class="st0" points="47,20 43,24 39,20 				"/>
				<polyline class="st0" points="38,8 34,4 30,8 				"/>
				<polyline class="st0" points="25,24 25,13 2,13 				"/>
				<polyline class="st0" points="43,24 43,13 66,13 				"/>
				<line class="st0" x1="34" y1="25" x2="34" y2="4"/>
			</g>
		</g>
	</g>
</g>
</svg>
