<?xml version="1.0" encoding="utf-8"?>
<!-- Generator: Adobe Illustrator 22.0.1, SVG Export Plug-In . SVG Version: 6.00 Build 0)  -->
<svg version="1.1" id="Layer_1" xmlns="http://www.w3.org/2000/svg" xmlns:xlink="http://www.w3.org/1999/xlink" x="0px" y="0px"
	 viewBox="0 0 68 68" style="enable-background:new 0 0 68 68;" xml:space="preserve">
<style type="text/css">
	.st0{fill:#006796;}
</style>
<g>
	<g>
		<g>
			<path class="st0" d="M34,66c-0.1,0-0.3,0-0.4-0.1C33.3,65.8,6,54.2,6,16v-4c0-0.6,0.4-1,1-1h13c6.4,0,12.1-8.5,12.2-8.6
				C32.4,2.2,32.7,2,33,2h2c0.3,0,0.6,0.2,0.8,0.4C35.9,2.5,41.6,11,48,11h13c0.6,0,1,0.4,1,1v4c0,38.2-27.3,49.8-27.6,49.9
				C34.3,66,34.1,66,34,66z M8,13v3c0,34.4,22.8,46.4,26,47.9c3.2-1.5,26-13.5,26-47.9v-3H48c-6.6,0-12.2-7.1-13.5-9h-1
				c-1.4,1.9-6.9,9-13.5,9H8z"/>
			<path class="st0" d="M34,60c-0.2,0-0.3,0-0.5-0.1C33.3,59.8,11,47.2,11,17c0-0.6,0.4-1,1-1h8c9.3,0,13-6.2,13.1-6.5
				C33.3,9.2,33.6,9,34,9c0,0,0,0,0,0c0.4,0,0.7,0.2,0.9,0.5C35,9.8,38.7,16,48,16h8c0.6,0,1,0.4,1,1c0,30.2-22.3,42.8-22.5,42.9
				C34.3,60,34.2,60,34,60z M13,18c0.4,25.9,17.9,37.9,21,39.8c3.1-2,20.6-14,21-39.8h-7c-7.9,0-12.3-4.1-14-6.3
				c-1.7,2.1-6.1,6.3-14,6.3H13z"/>
			<path class="st0" d="M33.2,59.6C32.8,58.9,23,44,23,17h2c0,26.3,9.7,41.3,9.8,41.4L33.2,59.6z"/>
			<path class="st0" d="M34.8,59.6l-1.7-1.1C33.3,58.3,43,43.3,43,17h2C45,44,35.2,58.9,34.8,59.6z"/>
			<rect x="33" y="20" class="st0" width="2" height="2"/>
			<rect x="33" y="16" class="st0" width="2" height="2"/>
			<rect x="33" y="24" class="st0" width="2" height="2"/>
			<rect x="17" y="20" class="st0" width="2" height="2"/>
			<rect x="17" y="24" class="st0" width="2" height="2"/>
			<rect x="49" y="20" class="st0" width="2" height="2"/>
			<rect x="49" y="24" class="st0" width="2" height="2"/>
		</g>
	</g>
</g>
</svg>
