<?xml version="1.0" encoding="utf-8"?>
<!-- Generator: Adobe Illustrator 22.0.1, SVG Export Plug-In . SVG Version: 6.00 Build 0)  -->
<svg version="1.1" id="Layer_1" xmlns="http://www.w3.org/2000/svg" xmlns:xlink="http://www.w3.org/1999/xlink" x="0px" y="0px"
	 viewBox="0 0 68 68" style="enable-background:new 0 0 68 68;" xml:space="preserve">
<style type="text/css">
	.st0{fill:#006796;}
</style>
<g>
	<g>
		<g>
			<rect x="6" y="2" class="st0" width="2" height="64"/>
			<rect x="2" y="60" class="st0" width="64" height="2"/>
			<rect x="11.8" y="43" transform="matrix(0.7071 -0.7071 0.7071 0.7071 -26.391 24.2153)" class="st0" width="8.5" height="2"/>
			<g>
				<rect x="10" y="56" class="st0" width="2" height="2"/>
				<rect x="14" y="56" class="st0" width="2" height="2"/>
				<rect x="18" y="56" class="st0" width="2" height="2"/>
				<rect x="22" y="56" class="st0" width="2" height="2"/>
				<rect x="26" y="56" class="st0" width="2" height="2"/>
				<rect x="30" y="56" class="st0" width="2" height="2"/>
				<rect x="34" y="56" class="st0" width="2" height="2"/>
				<rect x="38" y="56" class="st0" width="2" height="2"/>
				<rect x="42" y="56" class="st0" width="2" height="2"/>
				<rect x="46" y="56" class="st0" width="2" height="2"/>
				<rect x="50" y="56" class="st0" width="2" height="2"/>
				<rect x="54" y="56" class="st0" width="2" height="2"/>
				<rect x="58" y="56" class="st0" width="2" height="2"/>
				<rect x="62" y="56" class="st0" width="2" height="2"/>
			</g>
			<g>
				<polygon class="st0" points="25.7,35.7 24.3,34.3 29.6,29 43.6,29 62.3,10.3 63.7,11.7 44.4,31 30.4,31 				"/>
				<g>
					<polygon class="st0" points="64,16 62,16 62,12 58,12 58,10 64,10 					"/>
				</g>
				<g>
					<g>
						<polygon class="st0" points="59.7,50.7 58.3,49.3 61.6,46 58.3,42.7 59.7,41.3 64.4,46 						"/>
					</g>
					<polygon class="st0" points="32,49.4 12.3,29.7 13.7,28.3 32,46.6 40,38.6 46.4,45 63,45 63,47 45.6,47 40,41.4 					"/>
				</g>
			</g>
		</g>
	</g>
</g>
</svg>
