<?xml version="1.0" encoding="utf-8"?>
<!-- Generator: Adobe Illustrator 22.0.1, SVG Export Plug-In . SVG Version: 6.00 Build 0)  -->
<svg version="1.1" id="Layer_1" xmlns="http://www.w3.org/2000/svg" xmlns:xlink="http://www.w3.org/1999/xlink" x="0px" y="0px"
	 viewBox="0 0 68 68" style="enable-background:new 0 0 68 68;" xml:space="preserve">
<style type="text/css">
	.st0{fill:#006796;}
</style>
<g>
	<g>
		<g>
			<g>
				<g>
					<path class="st0" d="M26,44c-2.2,0-4-1.8-4-4h2c0,1.1,0.9,2,2,2s2-0.9,2-2c0-0.6-1.4-1.6-2.4-2.1C25,37.6,22,36.2,22,34
						c0-2.2,1.8-4,4-4s4,1.8,4,4h-2c0-1.1-0.9-2-2-2s-2,0.9-2,2c0,0.6,1.4,1.6,2.4,2.1C27,36.4,30,37.8,30,40C30,42.2,28.2,44,26,44
						z"/>
					<rect x="25" y="28" class="st0" width="2" height="3"/>
					<rect x="25" y="43" class="st0" width="2" height="3"/>
					<rect x="32" y="36" class="st0" width="2" height="2"/>
					<rect x="18" y="36" class="st0" width="2" height="2"/>
				</g>
				<path class="st0" d="M30,66H11c-3.9,0-7-3.1-7-7V43c0-17.6,7.7-21.8,12.8-24.5c1.4-0.8,2.7-1.4,3.5-2.2l1.4,1.4
					c-1,1-2.4,1.7-3.9,2.6C12.8,22.9,6,26.6,6,43v16c0,2.8,2.2,5,5,5h19V66z"/>
				<path class="st0" d="M48,42h-2c0-16.2-6.7-19.4-11.5-21.7c-1.6-0.8-3.1-1.5-4.2-2.6l1.4-1.4c0.8,0.8,2.1,1.4,3.6,2.2
					C40.4,20.9,48,24.5,48,42z"/>
				<path class="st0" d="M31,18H21c-1.1,0-2-0.9-2-2v-2c0-1.1,0.9-2,2-2h10c1.1,0,2,0.9,2,2v2C33,17.1,32.1,18,31,18z M21,14v2h10
					v-2H21z"/>
				<path class="st0" d="M30,14h-8c-0.4,0-0.7-0.2-0.9-0.6l-4-8c-0.2-0.5,0-1.1,0.4-1.3l4-2c0.3-0.1,0.6-0.1,0.9,0L26,3.9l3.6-1.8
					c0.3-0.1,0.6-0.1,0.9,0l4,2c0.5,0.2,0.7,0.8,0.4,1.3l-4,8C30.7,13.8,30.4,14,30,14z M22.6,12h6.8l3.3-6.6L30,4.1l-3.6,1.8
					c-0.3,0.1-0.6,0.1-0.9,0L22,4.1l-2.7,1.3L22.6,12z"/>
				<path class="st0" d="M32,16v-2c1.7,0,3-1.3,3-3h2C37,13.8,34.8,16,32,16z"/>
				<path class="st0" d="M20,16c-2.8,0-5-2.2-5-5h2c0,1.7,1.3,3,3,3V16z"/>
				<path class="st0" d="M26,50c-7.2,0-13-5.8-13-13c0-7.2,5.8-13,13-13s13,5.8,13,13C39,44.2,33.2,50,26,50z M26,26
					c-6.1,0-11,4.9-11,11s4.9,11,11,11s11-4.9,11-11S32.1,26,26,26z"/>
			</g>
			<g>
				<path class="st0" d="M42,66h-8c-1.1,0-2-0.9-2-2v-2c0-1.1,0.9-2,2-2h8c1.1,0,2,0.9,2,2v2C44,65.1,43.1,66,42,66z M34,62v2h8v-2
					H34z"/>
				<path class="st0" d="M42,62h-8c-1.1,0-2-0.9-2-2v-2c0-1.1,0.9-2,2-2h8c1.1,0,2,0.9,2,2v2C44,61.1,43.1,62,42,62z M34,58v2h8v-2
					H34z"/>
				<path class="st0" d="M42,58h-8c-1.1,0-2-0.9-2-2v-2c0-1.1,0.9-2,2-2h8c1.1,0,2,0.9,2,2v2C44,57.1,43.1,58,42,58z M34,54v2h8v-2
					H34z"/>
				<path class="st0" d="M52,66h-8c-1.1,0-2-0.9-2-2v-2c0-1.1,0.9-2,2-2h8c1.1,0,2,0.9,2,2v2C54,65.1,53.1,66,52,66z M44,62v2h8v-2
					H44z"/>
				<path class="st0" d="M52,62h-8c-1.1,0-2-0.9-2-2v-2c0-1.1,0.9-2,2-2h8c1.1,0,2,0.9,2,2v2C54,61.1,53.1,62,52,62z M44,58v2h8v-2
					H44z"/>
				<path class="st0" d="M52,58h-8c-1.1,0-2-0.9-2-2v-2c0-1.1,0.9-2,2-2h8c1.1,0,2,0.9,2,2v2C54,57.1,53.1,58,52,58z M44,54v2h8v-2
					H44z"/>
				<path class="st0" d="M52,54h-8c-1.1,0-2-0.9-2-2v-2c0-1.1,0.9-2,2-2h8c1.1,0,2,0.9,2,2v2C54,53.1,53.1,54,52,54z M44,50v2h8v-2
					H44z"/>
				<path class="st0" d="M52,50h-8c-1.1,0-2-0.9-2-2v-2c0-1.1,0.9-2,2-2h8c1.1,0,2,0.9,2,2v2C54,49.1,53.1,50,52,50z M44,46v2h8v-2
					H44z"/>
				<path class="st0" d="M62,66h-8c-1.1,0-2-0.9-2-2v-2c0-1.1,0.9-2,2-2h8c1.1,0,2,0.9,2,2v2C64,65.1,63.1,66,62,66z M54,62v2h8v-2
					H54z"/>
				<path class="st0" d="M62,62h-8c-1.1,0-2-0.9-2-2v-2c0-1.1,0.9-2,2-2h8c1.1,0,2,0.9,2,2v2C64,61.1,63.1,62,62,62z M54,58v2h8v-2
					H54z"/>
				<path class="st0" d="M62,58h-8c-1.1,0-2-0.9-2-2v-2c0-1.1,0.9-2,2-2h8c1.1,0,2,0.9,2,2v2C64,57.1,63.1,58,62,58z M54,54v2h8v-2
					H54z"/>
				<path class="st0" d="M62,54h-8c-1.1,0-2-0.9-2-2v-2c0-1.1,0.9-2,2-2h8c1.1,0,2,0.9,2,2v2C64,53.1,63.1,54,62,54z M54,50v2h8v-2
					H54z"/>
				<path class="st0" d="M62,50h-8c-1.1,0-2-0.9-2-2v-2c0-1.1,0.9-2,2-2h8c1.1,0,2,0.9,2,2v2C64,49.1,63.1,50,62,50z M54,46v2h8v-2
					H54z"/>
				<path class="st0" d="M62,46h-8c-1.1,0-2-0.9-2-2v-2c0-1.1,0.9-2,2-2h8c1.1,0,2,0.9,2,2v2C64,45.1,63.1,46,62,46z M54,42v2h8v-2
					H54z"/>
				<path class="st0" d="M62,42h-8c-1.1,0-2-0.9-2-2v-2c0-1.1,0.9-2,2-2h8c1.1,0,2,0.9,2,2v2C64,41.1,63.1,42,62,42z M54,38v2h8v-2
					H54z"/>
				<path class="st0" d="M62,32h-8c-1.1,0-2-0.9-2-2v-2c0-1.1,0.9-2,2-2h8c1.1,0,2,0.9,2,2v2C64,31.1,63.1,32,62,32z M54,28v2h8v-2
					H54z"/>
				<rect x="55" y="16" class="st0" width="2" height="8"/>
				<rect x="59" y="10" class="st0" width="2" height="8"/>
				<rect x="55" y="12" class="st0" width="2" height="2"/>
				<rect x="59" y="20" class="st0" width="2" height="2"/>
			</g>
		</g>
	</g>
</g>
</svg>
