<?xml version="1.0" encoding="utf-8"?>
<!-- Generator: Adobe Illustrator 24.1.1, SVG Export Plug-In . SVG Version: 6.00 Build 0)  -->
<svg version="1.1" id="Layer_1" xmlns="http://www.w3.org/2000/svg" xmlns:xlink="http://www.w3.org/1999/xlink" x="0px" y="0px"
	 viewBox="0 0 215.8 64.2" style="enable-background:new 0 0 215.8 64.2;" xml:space="preserve">
<style type="text/css">
	.st0{fill:#006796;}
</style>
<g>
	<path class="st0" d="M205.3,11.1c-9.4,0-10.5,6-10.5,13c0,8,1.2,13.7,10.5,13.7c3.4,0,5.9-0.9,7.6-2.5c1.7-1.6,2.6-3.9,2.7-6.7
		h-7.3c0,2.1-0.5,4.6-3,4.6c-3.1,0-3.3-4.6-3.3-7.6h13.7C216,17.4,215,11.1,205.3,11.1L205.3,11.1z M208.6,21.6H202
		c0-2.2-0.1-6,3.3-6C208.7,15.5,208.6,19.1,208.6,21.6L208.6,21.6z M192.7,38.4V11.6h-6.8v3h-0.1c-1-2.4-3.2-3.5-5.7-3.5
		c-7.5,0-7.6,7.2-7.6,12.8c0,5.8-0.4,13,7.5,13c2.3,0,4.4-1,5.4-3h0.1v4.9c0,2.6-0.9,4.3-2.6,4.3c-1.1,0-1.9-0.4-2.4-1
		s-0.6-1.5-0.6-2.6h-7c0.2,6.3,4.7,7.6,10.1,7.6C192.8,47.1,192.7,40.1,192.7,38.4L192.7,38.4z M185.6,24.4c0,5.4-0.4,8.1-2.9,8.1
		c-3.5,0-3.1-4.9-3.1-7.3c0-7.8,0.5-9.7,3.2-9.7C185.3,15.5,185.6,18.7,185.6,24.4L185.6,24.4z M163,37.3h6.8V0.6h-7.2v13.5h-0.1
		c-1.5-2.2-3.3-2.9-5.8-2.9c-7.2,0-7,8-7,13.2c0,5.3-0.3,13.5,7.2,13.5c2.7,0,4.7-0.9,6-3.4h0.1V37.3L163,37.3z M162.7,24.2
		c0,6.5-0.5,9.1-2.9,9.1c-2.6,0-3-2.7-3-9.1c0-5.1-0.1-8.7,3-8.7C162.7,15.5,162.7,19.1,162.7,24.2L162.7,24.2z M137.3,17.5v-6.4
		c-2.9,0-5.3,0.9-6.7,3.8h-0.1v-3.3h-6.8v25.7h7.2v-14C130.9,20.8,131,17.1,137.3,17.5L137.3,17.5z M114.3,18.3v-0.1
		c4.2-0.8,6.2-3.9,6.2-8.1c0-7.8-4.8-9.5-10.7-9.5H96.2v36.7h13.6c3.3,0,11.3-0.4,11.3-9.7C121.1,22.6,119.7,19.1,114.3,18.3
		L114.3,18.3z M113.1,10.9c0,3.6-2.3,4.7-4,4.7H104V6.2h4.7C111.2,6.2,113.1,8.2,113.1,10.9L113.1,10.9z M113.5,26.5
		c0,5.1-3.7,5.2-5.3,5.2h-4.3V21.2h4.5C112.2,21.2,113.5,23.2,113.5,26.5L113.5,26.5z M94.5,17.5v-6.4c-2.9,0-5.3,0.9-6.7,3.8h-0.1
		v-3.3H81v25.7h7.2v-14C88.1,20.8,88.2,17.1,94.5,17.5L94.5,17.5z M71.8,37.3h6.7c-0.2-1.6-0.4-3.2-0.4-4.8V19.7
		c0-4.7-1.2-8.6-10.3-8.6c-2.7,0-5.1,0.5-6.7,1.7C59.4,14,58.5,16,58.5,19h7c0-2,0.2-3.9,2.7-3.9c2.6,0,2.9,1.6,2.9,3.8v2
		c-6.7-0.1-13.2,0.3-13.2,8.7c0,4.5,1.8,8.2,6.8,8.2c3.1,0,5.2-1.3,6.7-3.9h0.1L71.8,37.3L71.8,37.3z M67.5,33.4
		c-2.3,0-2.6-2.2-2.6-4.1c0-4.6,2.6-4.3,6.2-4.4C71.1,27.7,71.7,33.4,67.5,33.4L67.5,33.4z M56.1,25.6c0.3-8.2-0.8-14.5-10.5-14.5
		c-9.4,0-10.5,6-10.5,13c0,8,1.2,13.7,10.5,13.7c3.4,0,5.9-0.9,7.6-2.5c1.7-1.6,2.6-3.9,2.7-6.7h-7.3c0,2.1-0.5,4.6-3,4.6
		c-3.1,0-3.3-4.6-3.3-7.6L56.1,25.6L56.1,25.6z M48.9,21.6h-6.6c0-2.2-0.1-6,3.3-6C49,15.5,48.9,19.1,48.9,21.6L48.9,21.6z
		 M25.8,37.3H33V0.6h-7.2V37.3L25.8,37.3z M7.8,18.9c0-9.4,0.6-13.5,4.9-13.5c2.3,0,3.1,1.8,3.1,6.7h7.5C23.6,4.3,20.5,0,12.7,0
		C0,0,0,9.2,0,18.9c0,9.6,0,18.9,12.7,18.9c7.2,0,11.1-3.1,11.1-13h-7.6c-0.1,2.9,0.1,7.5-3.5,7.5C8.3,32.4,7.8,28.3,7.8,18.9
		L7.8,18.9z M146.4,11.6h-7.2v25.7h7.2V11.6L146.4,11.6z"/>
	<path class="st0" d="M96.2,63.9h2.2V48.1h-2.2V63.9L96.2,63.9z M101.3,63.9h2v-6.3c0-2.2,1.4-3.3,2.8-3.3c0.7,0,1.4,0.2,1.9,0.7
		s0.6,1.2,0.6,1.9v6.9h2.1v-7.4c0-3.4-3-3.7-4-3.7c-2.5,0-3.3,1.5-3.5,2v-1.8h-2v1.3L101.3,63.9L101.3,63.9z M116.5,63.9h2.1
		l4.8-10.9h-2.3l-3.4,8.7l-3.5-8.7H112L116.5,63.9L116.5,63.9z M134,58.8c0-1.8,0.2-6.1-4.7-6.1c-0.6,0-1.9,0.1-3,0.8
		c-1.7,1.2-2.2,3-2.2,5.1c0,3.5,1.6,5.6,5.1,5.6c2.2,0,3.3-0.9,3.8-1.5c0.8-0.8,0.9-1.7,0.9-2.3h-2c-0.2,1.6-1.2,2.3-2.6,2.3
		c-2.2,0-3.2-1.7-3.1-3.9L134,58.8L134,58.8z M126.2,57.3c0-2.4,1.7-3.2,3-3.2c2.5,0,2.7,2.2,2.7,3.2H126.2L126.2,57.3z M136,60.6
		c0,2.6,2,3.5,4.3,3.5c1.1,0,2.3-0.2,3.2-0.7c0.8-0.5,1.5-1.5,1.5-2.8c0-0.7-0.2-1.5-0.8-2c-0.7-0.6-1.3-0.8-4.3-1.5
		c-0.6-0.2-1.5-0.4-1.5-1.4c0-1.6,1.9-1.6,2.2-1.6c0.7,0,2.2,0.1,2.1,1.8h2.1c0-0.5,0-1-0.3-1.6c-0.7-1.3-2.6-1.7-3.9-1.7
		c-2.5,0-4.3,1.3-4.3,3.3c0,2.3,1.9,2.7,4.2,3.3c1.6,0.4,2.4,0.6,2.4,1.6c0,0.4-0.1,0.7-0.3,1c-0.4,0.5-1.1,0.7-1.9,0.7
		c-2,0-2.4-1.2-2.4-2H136V60.6z M146.6,54.4h1.9v7.3c0,1.8,0.9,2.3,2.8,2.3c0.7,0,1.3-0.1,1.7-0.1v-1.6c-0.2,0-0.6,0.1-1,0.1
		c-1.5,0-1.5-0.9-1.5-1.5v-6.5h2.4v-1.5h-2.4V50l-2,0.7V53h-1.9V54.4L146.6,54.4z M155.7,63.9h2.1v-6.2c0-0.7,0-1.6,0.5-2.2
		c0.2-0.3,1-1.2,2.4-1.2c1.6,0,2.4,1,2.4,2.4v7.2h2.1v-6.1c0-0.5,0-1.7,0.5-2.4c0.3-0.4,1-1.2,2.3-1.2c1,0,1.7,0.5,2.1,1
		c0.2,0.3,0.4,0.7,0.4,1.7v7h2.1v-7.3c0-3.2-2.4-3.9-4-3.9c-2.4,0-3.3,1.4-3.7,2c-0.4-0.8-1.2-2-3.6-2c-0.9,0-2.4,0.2-3.5,1.9V53
		h-2.1v1.5V63.9L155.7,63.9z M184.7,58.8c0-1.8,0.2-6.1-4.7-6.1c-0.6,0-1.9,0.1-3,0.8c-1.7,1.2-2.2,3-2.2,5.1c0,3.5,1.6,5.6,5.1,5.6
		c2.2,0,3.3-0.9,3.8-1.5c0.8-0.8,0.9-1.7,0.9-2.3h-2c-0.2,1.6-1.2,2.3-2.6,2.3c-2.2,0-3.2-1.7-3.1-3.9L184.7,58.8L184.7,58.8z
		 M176.9,57.3c0-2.4,1.7-3.2,3-3.2c2.5,0,2.7,2.2,2.7,3.2H176.9L176.9,57.3z M187.3,63.9h2v-6.3c0-2.2,1.4-3.3,2.8-3.3
		c0.7,0,1.4,0.2,1.9,0.7s0.6,1.2,0.6,1.9v6.9h2.1v-7.4c0-3.4-3-3.7-4-3.7c-2.5,0-3.3,1.5-3.5,2v-1.8h-2v1.3L187.3,63.9L187.3,63.9z
		 M198.7,54.4h1.9v7.3c0,1.8,0.9,2.3,2.8,2.3c0.7,0,1.3-0.1,1.7-0.1v-1.6c-0.2,0-0.6,0.1-1,0.1c-1.5,0-1.5-0.9-1.5-1.5v-6.5h2.4
		v-1.5h-2.4V50l-2,0.7V53h-1.9V54.4L198.7,54.4z M206.8,60.6c0,2.6,2,3.5,4.3,3.5c1.1,0,2.3-0.2,3.2-0.7c0.8-0.5,1.5-1.5,1.5-2.8
		c0-0.7-0.2-1.5-0.8-2c-0.7-0.6-1.3-0.8-4.3-1.5c-0.6-0.2-1.5-0.4-1.5-1.4c0-1.6,1.9-1.6,2.2-1.6c0.7,0,2.2,0.1,2.1,1.8h2.1
		c0-0.5,0-1-0.3-1.6c-0.7-1.3-2.6-1.7-3.9-1.7c-2.5,0-4.3,1.3-4.3,3.3c0,2.3,1.9,2.7,4.2,3.3c1.6,0.4,2.4,0.6,2.4,1.6
		c0,0.4-0.1,0.7-0.3,1c-0.4,0.5-1.1,0.7-1.9,0.7c-2,0-2.4-1.2-2.4-2h-2.3V60.6z"/>
</g>
</svg>
